<svg width="14" height="19" viewBox="0 0 14 19" fill="none" xmlns="http://www.w3.org/2000/svg">
<path d="M12 6.66665H11.1667V4.99998C11.1667 2.69998 9.30004 0.833313 7.00004 0.833313C4.70004 0.833313 2.83337 2.69998 2.83337 4.99998V6.66665H2.00004C1.08337 6.66665 0.333374 7.41665 0.333374 8.33331V16.6666C0.333374 17.5833 1.08337 18.3333 2.00004 18.3333H12C12.9167 18.3333 13.6667 17.5833 13.6667 16.6666V8.33331C13.6667 7.41665 12.9167 6.66665 12 6.66665ZM7.00004 14.1666C6.08337 14.1666 5.33337 13.4166 5.33337 12.5C5.33337 11.5833 6.08337 10.8333 7.00004 10.8333C7.91671 10.8333 8.66671 11.5833 8.66671 12.5C8.66671 13.4166 7.91671 14.1666 7.00004 14.1666ZM9.58337 6.66665H4.41671V4.99998C4.41671 3.57498 5.57504 2.41665 7.00004 2.41665C8.42504 2.41665 9.58337 3.57498 9.58337 4.99998V6.66665Z" fill="#A5B0C1"/>
</svg>
